# Blender v3.1.2 OBJ File: ''
# www.blender.org
mtllib glasspane.mtl
o pane_Plane
v -5.740085 -0.000000 3.897270
v 5.740085 -0.000000 3.897270
v -5.740085 -0.000000 -3.897270
v 5.740085 -0.000000 -3.897270
v -5.992540 -0.000000 -3.200000
v -5.992540 -0.000000 -2.400000
v -5.992540 -0.000000 -1.600000
v -5.992540 -0.000000 -0.800000
v -5.992540 -0.000000 -0.000000
v -5.992540 -0.000000 0.800000
v -5.992540 -0.000000 1.600000
v -5.992540 -0.000000 2.400000
v -5.992540 -0.000000 3.200000
v -4.794032 -0.000000 4.000000
v -3.595524 -0.000000 4.000000
v -2.397016 -0.000000 4.000000
v -1.198508 -0.000000 4.000000
v 0.000000 -0.000000 4.000000
v 1.198508 -0.000000 4.000000
v 2.397016 -0.000000 4.000000
v 3.595524 -0.000000 4.000000
v 4.794032 -0.000000 4.000000
v 5.992540 -0.000000 3.200000
v 5.992540 -0.000000 2.400000
v 5.992540 -0.000000 1.600000
v 5.992540 -0.000000 0.800000
v 5.992540 -0.000000 -0.000000
v 5.992540 -0.000000 -0.800000
v 5.992540 -0.000000 -1.600000
v 5.992540 -0.000000 -2.400000
v 5.992540 -0.000000 -3.200000
v 4.794032 -0.000000 -4.000000
v 3.595524 -0.000000 -4.000000
v 2.397016 -0.000000 -4.000000
v 1.198508 -0.000000 -4.000000
v -0.000000 -0.000000 -4.000000
v -1.198508 -0.000000 -4.000000
v -2.397016 -0.000000 -4.000000
v -3.595524 -0.000000 -4.000000
v -4.794032 -0.000000 -4.000000
v -5.393286 -0.000000 -4.000000
v -5.393286 -0.000000 4.000000
v 5.393286 -0.000000 4.000000
v 5.393286 -0.000000 -4.000000
v -5.978236 -0.000000 3.559392
v 5.978236 -0.000000 3.559392
v 5.978236 -0.000000 -3.559392
v -5.978236 -0.000000 -3.559392
v -5.897073 -0.000000 3.768291
v 5.595874 -0.000000 3.969340
v 5.897073 -0.000000 -3.768291
v -5.595874 -0.000000 -3.969340
v -5.992540 -0.000000 -3.400000
v -5.992540 -0.000000 -2.800000
v -5.992540 -0.000000 -2.000000
v -5.992540 -0.000000 -1.200000
v -5.992540 -0.000000 -0.400000
v -5.992540 -0.000000 0.400000
v -5.992540 -0.000000 1.200000
v -5.992540 -0.000000 2.000000
v -5.992540 -0.000000 2.800000
v -5.093659 -0.000000 4.000000
v -4.194777 -0.000000 4.000000
v -2.996270 -0.000000 4.000000
v -1.797762 -0.000000 4.000000
v -0.599254 -0.000000 4.000000
v 0.599254 -0.000000 4.000000
v 1.797762 -0.000000 4.000000
v 2.996270 -0.000000 4.000000
v 4.194778 -0.000000 4.000000
v 5.992540 -0.000000 3.400000
v 5.992540 -0.000000 2.800000
v 5.992540 -0.000000 2.000000
v 5.992540 -0.000000 1.200000
v 5.992540 -0.000000 0.400000
v 5.992540 -0.000000 -0.400000
v 5.992540 -0.000000 -1.200000
v 5.992540 -0.000000 -2.000000
v 5.992540 -0.000000 -2.800000
v 5.093659 -0.000000 -4.000000
v 4.194777 -0.000000 -4.000000
v 2.996270 -0.000000 -4.000000
v 1.797762 -0.000000 -4.000000
v 0.599254 -0.000000 -4.000000
v -0.599254 -0.000000 -4.000000
v -1.797762 -0.000000 -4.000000
v -2.996270 -0.000000 -4.000000
v -4.194778 -0.000000 -4.000000
v -5.093659 -0.000000 -4.000000
v -5.595874 -0.000000 3.969340
v 5.093659 -0.000000 4.000000
v 5.595874 -0.000000 -3.969340
v -5.992540 -0.000000 3.400000
v 5.897073 -0.000000 3.768291
v 5.992540 -0.000000 -3.400000
v -5.897073 -0.000000 -3.768291
v -5.978236 0.164294 -3.559392
v -5.897073 0.164294 -3.768291
v 5.978236 0.164294 -3.559392
v 5.992540 0.164294 -3.400000
v 5.978236 0.164294 3.559392
v 5.897073 0.164294 3.768291
v -5.978236 0.164294 3.559392
v -5.992540 0.164294 3.400000
v 5.393286 0.164294 -4.000000
v 5.595874 0.164294 -3.969340
v 5.393286 0.164294 4.000000
v 5.093659 0.164294 4.000000
v -5.393286 0.164294 4.000000
v -5.595874 0.164294 3.969340
v -5.393286 0.164294 -4.000000
v -5.093659 0.164294 -4.000000
v -4.794032 0.164294 -4.000000
v -4.194778 0.164294 -4.000000
v -3.595524 0.164294 -4.000000
v -2.996270 0.164294 -4.000000
v -2.397016 0.164294 -4.000000
v -1.797762 0.164294 -4.000000
v -1.198508 0.164294 -4.000000
v -0.599254 0.164294 -4.000000
v -0.000000 0.164294 -4.000000
v 0.599254 0.164294 -4.000000
v 1.198508 0.164294 -4.000000
v 1.797762 0.164294 -4.000000
v 2.397016 0.164294 -4.000000
v 2.996270 0.164294 -4.000000
v 3.595524 0.164294 -4.000000
v 4.194777 0.164294 -4.000000
v 4.794032 0.164294 -4.000000
v 5.093659 0.164294 -4.000000
v 5.992540 0.164294 -3.200000
v 5.992540 0.164294 -2.800000
v 5.992540 0.164294 -2.400000
v 5.992540 0.164294 -2.000000
v 5.992540 0.164294 -1.600000
v 5.992540 0.164294 -1.200000
v 5.992540 0.164294 -0.800000
v 5.992540 0.164294 -0.400000
v 5.992540 0.164294 -0.000000
v 5.992540 0.164294 0.400000
v 5.992540 0.164294 0.800000
v 5.992540 0.164294 1.200000
v 5.992540 0.164294 1.600000
v 5.992540 0.164294 2.000000
v 5.992540 0.164294 2.400000
v 5.992540 0.164294 2.800000
v 5.992540 0.164294 3.200000
v 5.992540 0.164294 3.400000
v 4.794032 0.164294 4.000000
v 4.194778 0.164294 4.000000
v 3.595524 0.164294 4.000000
v 2.996270 0.164294 4.000000
v 2.397016 0.164294 4.000000
v 1.797762 0.164294 4.000000
v 1.198508 0.164294 4.000000
v 0.599254 0.164294 4.000000
v 0.000000 0.164294 4.000000
v -0.599254 0.164294 4.000000
v -1.198508 0.164294 4.000000
v -1.797762 0.164294 4.000000
v -2.397016 0.164294 4.000000
v -2.996270 0.164294 4.000000
v -3.595524 0.164294 4.000000
v -4.194777 0.164294 4.000000
v -4.794032 0.164294 4.000000
v -5.093659 0.164294 4.000000
v -5.992540 0.164294 3.200000
v -5.992540 0.164294 2.800000
v -5.992540 0.164294 2.400000
v -5.992540 0.164294 2.000000
v -5.992540 0.164294 1.600000
v -5.992540 0.164294 1.200000
v -5.992540 0.164294 0.800000
v -5.992540 0.164294 0.400000
v -5.992540 0.164294 -0.000000
v -5.992540 0.164294 -0.400000
v -5.992540 0.164294 -0.800000
v -5.992540 0.164294 -1.200000
v -5.992540 0.164294 -1.600000
v -5.992540 0.164294 -2.000000
v -5.992540 0.164294 -2.400000
v -5.992540 0.164294 -2.800000
v -5.992540 0.164294 -3.200000
v -5.992540 0.164294 -3.400000
v -5.740085 0.164294 -3.897270
v -5.595874 0.164294 -3.969340
v 5.740085 0.164294 -3.897270
v 5.897073 0.164294 -3.768291
v 5.740085 0.164294 3.897270
v 5.595874 0.164294 3.969340
v -5.740085 0.164294 3.897270
v -5.897073 0.164294 3.768291
vt 0.007966 0.028964
vt 0.021064 0.012841
vt 0.033097 0.003832
vt 0.050000 0.000000
vt 0.075000 0.000000
vt 0.100000 0.000000
vt 0.150000 0.000000
vt 0.200000 0.000000
vt 0.250000 0.000000
vt 0.300000 0.000000
vt 0.350000 0.000000
vt 0.400000 0.000000
vt 0.450000 0.000000
vt 0.500000 0.000000
vt 0.550000 0.000000
vt 0.600000 0.000000
vt 0.650000 0.000000
vt 0.700000 0.000000
vt 0.750000 0.000000
vt 0.800000 0.000000
vt 0.850000 0.000000
vt 0.900000 0.000000
vt 0.925000 0.000000
vt 0.950000 0.000000
vt 0.966903 0.003832
vt 0.978936 0.012841
vt 0.992034 0.028964
vt 0.998806 0.055076
vt 1.000000 0.075000
vt 1.000000 0.100000
vt 1.000000 0.150000
vt 1.000000 0.200000
vt 1.000000 0.250000
vt 1.000000 0.300000
vt 1.000000 0.350000
vt 1.000000 0.400000
vt 1.000000 0.450000
vt 1.000000 0.500000
vt 1.000000 0.550000
vt 1.000000 0.600000
vt 1.000000 0.650000
vt 1.000000 0.700000
vt 1.000000 0.750000
vt 1.000000 0.800000
vt 1.000000 0.850000
vt 1.000000 0.900000
vt 1.000000 0.925000
vt 0.998806 0.944924
vt 0.992034 0.971036
vt 0.978936 0.987159
vt 0.966903 0.996167
vt 0.950000 1.000000
vt 0.925000 1.000000
vt 0.900000 1.000000
vt 0.850000 1.000000
vt 0.800000 1.000000
vt 0.750000 1.000000
vt 0.700000 1.000000
vt 0.650000 1.000000
vt 0.600000 1.000000
vt 0.550000 1.000000
vt 0.500000 1.000000
vt 0.450000 1.000000
vt 0.400000 1.000000
vt 0.350000 1.000000
vt 0.300000 1.000000
vt 0.250000 1.000000
vt 0.200000 1.000000
vt 0.150000 1.000000
vt 0.100000 1.000000
vt 0.075000 1.000000
vt 0.050000 1.000000
vt 0.033097 0.996167
vt 0.021064 0.987159
vt 0.007966 0.971036
vt 0.001193 0.944924
vt 0.000000 0.925000
vt 0.000000 0.900000
vt 0.000000 0.850000
vt 0.000000 0.800000
vt 0.000000 0.750000
vt 0.000000 0.700000
vt 0.000000 0.650000
vt 0.000000 0.600000
vt 0.000000 0.550000
vt 0.000000 0.500000
vt 0.000000 0.450000
vt 0.000000 0.400000
vt 0.000000 0.350000
vt 0.000000 0.300000
vt 0.000000 0.250000
vt 0.000000 0.200000
vt 0.000000 0.150000
vt 0.000000 0.100000
vt 0.000000 0.075000
vt 0.001193 0.055076
vt 0.007966 0.028964
vt 0.001193 0.055076
vt 0.000000 0.075000
vt 0.000000 0.100000
vt 0.000000 0.150000
vt 0.000000 0.200000
vt 0.000000 0.250000
vt 0.000000 0.300000
vt 0.000000 0.350000
vt 0.000000 0.400000
vt 0.000000 0.450000
vt 0.000000 0.500000
vt 0.000000 0.550000
vt 0.000000 0.600000
vt 0.000000 0.650000
vt 0.000000 0.700000
vt 0.000000 0.750000
vt 0.000000 0.800000
vt 0.000000 0.850000
vt 0.000000 0.900000
vt 0.000000 0.925000
vt 0.001193 0.944924
vt 0.007966 0.971036
vt 0.021064 0.987159
vt 0.033097 0.996167
vt 0.050000 1.000000
vt 0.075000 1.000000
vt 0.100000 1.000000
vt 0.150000 1.000000
vt 0.200000 1.000000
vt 0.250000 1.000000
vt 0.300000 1.000000
vt 0.350000 1.000000
vt 0.400000 1.000000
vt 0.450000 1.000000
vt 0.500000 1.000000
vt 0.550000 1.000000
vt 0.600000 1.000000
vt 0.650000 1.000000
vt 0.700000 1.000000
vt 0.750000 1.000000
vt 0.800000 1.000000
vt 0.850000 1.000000
vt 0.900000 1.000000
vt 0.925000 1.000000
vt 0.950000 1.000000
vt 0.966903 0.996167
vt 0.978936 0.987159
vt 0.992034 0.971036
vt 0.998806 0.944924
vt 1.000000 0.925000
vt 1.000000 0.900000
vt 1.000000 0.850000
vt 1.000000 0.800000
vt 1.000000 0.750000
vt 1.000000 0.700000
vt 1.000000 0.650000
vt 1.000000 0.600000
vt 1.000000 0.550000
vt 1.000000 0.500000
vt 1.000000 0.450000
vt 1.000000 0.400000
vt 1.000000 0.350000
vt 1.000000 0.300000
vt 1.000000 0.250000
vt 1.000000 0.200000
vt 1.000000 0.150000
vt 1.000000 0.100000
vt 1.000000 0.075000
vt 0.998806 0.055076
vt 0.992034 0.028964
vt 0.978936 0.012841
vt 0.966903 0.003832
vt 0.950000 0.000000
vt 0.925000 0.000000
vt 0.900000 0.000000
vt 0.850000 0.000000
vt 0.800000 0.000000
vt 0.750000 0.000000
vt 0.700000 0.000000
vt 0.650000 0.000000
vt 0.600000 0.000000
vt 0.550000 0.000000
vt 0.500000 0.000000
vt 0.450000 0.000000
vt 0.400000 0.000000
vt 0.350000 0.000000
vt 0.300000 0.000000
vt 0.250000 0.000000
vt 0.200000 0.000000
vt 0.150000 0.000000
vt 0.100000 0.000000
vt 0.075000 0.000000
vt 0.050000 0.000000
vt 0.033097 0.003832
vt 0.021064 0.012841
vn 0.0000 1.0000 -0.0000
vn 0.0000 -1.0000 -0.0000
vn 0.6348 0.0000 -0.7727
vn 0.9960 0.0000 -0.0894
vn -1.0000 0.0000 0.0000
vn 0.1496 0.0000 0.9887
vn -0.4470 0.0000 -0.8945
vn -0.9321 0.0000 -0.3622
vn 0.9960 0.0000 0.0894
vn -0.6348 0.0000 0.7727
vn 0.0000 0.0000 1.0000
vn 1.0000 0.0000 0.0000
vn 0.0000 0.0000 -1.0000
vn 0.4470 0.0000 0.8945
vn -0.4470 0.0000 0.8945
vn -0.1496 0.0000 0.9887
vn 0.4470 0.0000 -0.8945
vn 0.1496 0.0000 -0.9887
vn -0.9960 0.0000 -0.0894
vn 0.6348 0.0000 0.7727
vn 0.9321 0.0000 -0.3622
vn -0.6348 0.0000 -0.7727
vn -0.1496 0.0000 -0.9887
vn -0.9960 0.0000 0.0894
vn -0.9321 0.0000 0.3622
vn 0.9321 0.0000 0.3622
usemtl None
s off
f 49/1/1 1/2/1 90/3/1 42/4/1 62/5/1 14/6/1 63/7/1 15/8/1 64/9/1 16/10/1 65/11/1 17/12/1 66/13/1 18/14/1 67/15/1 19/16/1 68/17/1 20/18/1 69/19/1 21/20/1 70/21/1 22/22/1 91/23/1 43/24/1 50/25/1 2/26/1 94/27/1 46/28/1 71/29/1 23/30/1 72/31/1 24/32/1 73/33/1 25/34/1 74/35/1 26/36/1 75/37/1 27/38/1 76/39/1 28/40/1 77/41/1 29/42/1 78/43/1 30/44/1 79/45/1 31/46/1 95/47/1 47/48/1 51/49/1 4/50/1 92/51/1 44/52/1 80/53/1 32/54/1 81/55/1 33/56/1 82/57/1 34/58/1 83/59/1 35/60/1 84/61/1 36/62/1 85/63/1 37/64/1 86/65/1 38/66/1 87/67/1 39/68/1 88/69/1 40/70/1 89/71/1 41/72/1 52/73/1 3/74/1 96/75/1 48/76/1 53/77/1 5/78/1 54/79/1 6/80/1 55/81/1 7/82/1 56/83/1 8/84/1 57/85/1 9/86/1 58/87/1 10/88/1 59/89/1 11/90/1 60/91/1 12/92/1 61/93/1 13/94/1 93/95/1 45/96/1
f 192/97/2 103/98/2 104/99/2 167/100/2 168/101/2 169/102/2 170/103/2 171/104/2 172/105/2 173/106/2 174/107/2 175/108/2 176/109/2 177/110/2 178/111/2 179/112/2 180/113/2 181/114/2 182/115/2 183/116/2 184/117/2 97/118/2 98/119/2 185/120/2 186/121/2 111/122/2 112/123/2 113/124/2 114/125/2 115/126/2 116/127/2 117/128/2 118/129/2 119/130/2 120/131/2 121/132/2 122/133/2 123/134/2 124/135/2 125/136/2 126/137/2 127/138/2 128/139/2 129/140/2 130/141/2 105/142/2 106/143/2 187/144/2 188/145/2 99/146/2 100/147/2 131/148/2 132/149/2 133/150/2 134/151/2 135/152/2 136/153/2 137/154/2 138/155/2 139/156/2 140/157/2 141/158/2 142/159/2 143/160/2 144/161/2 145/162/2 146/163/2 147/164/2 148/165/2 101/166/2 102/167/2 189/168/2 190/169/2 107/170/2 108/171/2 149/172/2 150/173/2 151/174/2 152/175/2 153/176/2 154/177/2 155/178/2 156/179/2 157/180/2 158/181/2 159/182/2 160/183/2 161/184/2 162/185/2 163/186/2 164/187/2 165/188/2 166/189/2 109/190/2 110/191/2 191/192/2
f 1/2/3 49/1/3 192/97/3 191/192/3
f 45/96/4 93/95/4 104/99/4 103/98/4
f 78/43/5 29/42/5 135/152/5 134/151/5
f 52/73/6 41/72/6 111/122/6 186/121/6
f 28/40/5 76/39/5 138/155/5 137/154/5
f 2/26/7 50/25/7 190/169/7 189/168/7
f 46/28/8 94/27/8 102/167/8 101/166/8
f 79/45/5 30/44/5 133/150/5 132/149/5
f 53/77/9 48/76/9 97/118/9 184/117/9
f 29/42/5 77/41/5 136/153/5 135/152/5
f 4/50/10 51/49/10 188/145/10 187/144/10
f 80/53/11 44/52/11 105/142/11 130/141/11
f 54/79/12 5/78/12 183/116/12 182/115/12
f 91/23/13 22/22/13 149/172/13 108/171/13
f 30/44/5 78/43/5 134/151/5 133/150/5
f 3/74/14 52/73/14 186/121/14 185/120/14
f 81/55/11 32/54/11 129/140/11 128/139/11
f 55/81/12 6/80/12 181/114/12 180/113/12
f 92/51/15 4/50/15 187/144/15 106/143/15
f 31/46/5 79/45/5 132/149/5 131/148/5
f 5/78/12 53/77/12 184/117/12 183/116/12
f 82/57/11 33/56/11 127/138/11 126/137/11
f 56/83/12 7/82/12 179/112/12 178/111/12
f 32/54/11 80/53/11 130/141/11 129/140/11
f 6/80/12 54/79/12 182/115/12 181/114/12
f 43/24/13 91/23/13 108/171/13 107/170/13
f 83/59/11 34/58/11 125/136/11 124/135/11
f 57/85/12 8/84/12 177/110/12 176/109/12
f 33/56/11 81/55/11 128/139/11 127/138/11
f 7/82/12 55/81/12 180/113/12 179/112/12
f 44/52/16 92/51/16 106/143/16 105/142/16
f 84/61/11 35/60/11 123/134/11 122/133/11
f 58/87/12 9/86/12 175/108/12 174/107/12
f 34/58/11 82/57/11 126/137/11 125/136/11
f 8/84/12 56/83/12 178/111/12 177/110/12
f 85/63/11 36/62/11 121/132/11 120/131/11
f 59/89/12 10/88/12 173/106/12 172/105/12
f 35/60/11 83/59/11 124/135/11 123/134/11
f 89/71/11 40/70/11 113/124/11 112/123/11
f 9/86/12 57/85/12 176/109/12 175/108/12
f 86/65/11 37/64/11 119/130/11 118/129/11
f 60/91/12 11/90/12 171/104/12 170/103/12
f 36/62/11 84/61/11 122/133/11 121/132/11
f 90/3/17 1/2/17 191/192/17 110/191/17
f 10/88/12 58/87/12 174/107/12 173/106/12
f 87/67/11 38/66/11 117/128/11 116/127/11
f 61/93/12 12/92/12 169/102/12 168/101/12
f 37/64/11 85/63/11 120/131/11 119/130/11
f 11/90/12 59/89/12 172/105/12 171/104/12
f 88/69/11 39/68/11 115/126/11 114/125/11
f 41/72/11 89/71/11 112/123/11 111/122/11
f 62/5/13 42/4/13 109/190/13 166/189/13
f 38/66/11 86/65/11 118/129/11 117/128/11
f 12/92/12 60/91/12 170/103/12 169/102/12
f 42/4/18 90/3/18 110/191/18 109/190/18
f 63/7/13 14/6/13 165/188/13 164/187/13
f 39/68/11 87/67/11 116/127/11 115/126/11
f 13/94/12 61/93/12 168/101/12 167/100/12
f 64/9/13 15/8/13 163/186/13 162/185/13
f 40/70/11 88/69/11 114/125/11 113/124/11
f 14/6/13 62/5/13 166/189/13 165/188/13
f 65/11/13 16/10/13 161/184/13 160/183/13
f 15/8/13 63/7/13 164/187/13 163/186/13
f 66/13/13 17/12/13 159/182/13 158/181/13
f 16/10/13 64/9/13 162/185/13 161/184/13
f 67/15/13 18/14/13 157/180/13 156/179/13
f 17/12/13 65/11/13 160/183/13 159/182/13
f 68/17/13 19/16/13 155/178/13 154/177/13
f 18/14/13 66/13/13 158/181/13 157/180/13
f 69/19/13 20/18/13 153/176/13 152/175/13
f 19/16/13 67/15/13 156/179/13 155/178/13
f 70/21/13 21/20/13 151/174/13 150/173/13
f 20/18/13 68/17/13 154/177/13 153/176/13
f 71/29/19 46/28/19 101/166/19 148/165/19
f 21/20/13 69/19/13 152/175/13 151/174/13
f 72/31/5 23/30/5 147/164/5 146/163/5
f 22/22/13 70/21/13 150/173/13 149/172/13
f 73/33/5 24/32/5 145/162/5 144/161/5
f 23/30/5 71/29/5 148/165/5 147/164/5
f 95/47/5 31/46/5 131/148/5 100/147/5
f 74/35/5 25/34/5 143/160/5 142/159/5
f 24/32/5 72/31/5 146/163/5 145/162/5
f 96/75/20 3/74/20 185/120/20 98/119/20
f 75/37/5 26/36/5 141/158/5 140/157/5
f 93/95/12 13/94/12 167/100/12 104/99/12
f 49/1/21 45/96/21 103/98/21 192/97/21
f 25/34/5 73/33/5 144/161/5 143/160/5
f 76/39/5 27/38/5 139/156/5 138/155/5
f 94/27/22 2/26/22 189/168/22 102/167/22
f 50/25/23 43/24/23 107/170/23 190/169/23
f 47/48/24 95/47/24 100/147/24 99/146/24
f 26/36/5 74/35/5 142/159/5 141/158/5
f 77/41/5 28/40/5 137/154/5 136/153/5
f 51/49/25 47/48/25 99/146/25 188/145/25
f 27/38/5 75/37/5 140/157/5 139/156/5
f 48/76/26 96/75/26 98/119/26 97/118/26
