<svg id="Ebene_1" data-name="Ebene 1" xmlns="http://www.w3.org/2000/svg" viewBox="0 0 1186.06 382.77"><defs><style>.cls-1{fill:#31492a;stroke:#fff;stroke-miterlimit:10;stroke-width:13px;}.cls-2{fill:#fff;}</style></defs><text x="-67.47" y="-70.61"/><line class="cls-1" y1="294.78" x2="846.38" y2="294.78"/><path class="cls-2" d="M530.87,328.48H501.35V169.24H445.89V328.36H416.21V169.16H389.54V159.9c0-4.19.11-8.38-.05-12.57-.07-2.05.68-2.51,2.58-2.48,7.12.1,14.24,0,21.35.09,2.26,0,2.74-.72,2.74-2.83,0-9.41,0-18.82.35-28.21.4-11,3-21.22,10.79-29.61,6.79-7.36,15.26-11.33,25-12.76,13.39-2,26.62-.56,39.78,2.08a3.93,3.93,0,0,1,.72.4c-1.46,8.79-2.93,17.7-4.38,26.5-5.33-.48-10.43-1.34-15.52-1.27a62.06,62.06,0,0,0-14.69,1.8c-6.22,1.61-9.45,6.47-11,12.55-1.33,5.33-2.15,25.16-1.19,31.14.79.05,1.63.15,2.48.15,16.6,0,33.21,0,49.82.05,2.23,0,3-.54,3-2.88.06-10.35.06-20.71.58-31C503,89.15,517,74.26,538.71,71.39c12.94-1.71,25.68-.27,38.37,2.16A4.06,4.06,0,0,1,578,74q-2.16,13.16-4.37,26.54c-4.39-.45-8.59-1.08-12.81-1.24a62.7,62.7,0,0,0-12.26.42c-10.64,1.72-15.59,6.56-16.7,17.23-.9,8.69-.68,17.5-1,26.26-.06,1.91,1.28,1.64,2.44,1.64h31.92V169H530.87Z" transform="translate(-67.47 -70.61)"/><path class="cls-2" d="M603.15,201.32l-17.89-2.5c-3-.42-6.1-.88-9.15-1.27-1.07-.14-1.89-.37-1.58-1.73,3.12-13.68,7.9-26.53,18.54-36.34,8.52-7.86,18.8-12.47,29.93-15.1,21.42-5.07,42.92-5.48,64.17.74,10.37,3,19.77,8.12,26,17.49a46.31,46.31,0,0,1,8.19,24.65c.53,18.8.65,37.61.87,56.42.15,13.2,0,26.41.33,39.6.29,10.72.2,21.54,3.6,31.91,1.45,4.4,3.26,8.69,5,13.21a18.15,18.15,0,0,1-1.82.16c-8.94,0-17.87,0-26.81.05-1.59,0-2.52-.41-2.93-2-1.53-5.7-3.1-11.38-4.61-17.09-.26-1-.33-2-.56-3.44-.94.77-1.64,1.33-2.32,1.91-11.45,9.68-23.8,17.76-38.52,21.61a91.9,91.9,0,0,1-44.79.85c-25.41-6-40.91-26.36-39.63-52.44,1.14-23.19,13.32-38.64,34.34-47.64,8.81-3.77,18.16-5.29,27.54-6.59,18.61-2.57,37.29-4.67,55.41-10,5.69-1.66,5.84-1.67,5.66-7.51A113.1,113.1,0,0,0,691,191.25c-2-11.87-9.93-18.58-20.85-21.9a73.09,73.09,0,0,0-42.28,0c-10.22,3-16.39,10.3-20.32,19.77C605.91,193.05,604.65,197.12,603.15,201.32ZM692,236.59a8,8,0,0,0-1.07.26c-15.05,5.77-30.82,8.45-46.62,11.14a182.62,182.62,0,0,0-25.1,5.64c-11.57,3.69-18.21,13.62-18.31,25.5s6.66,22.2,17.82,26.28c13.32,4.87,26.78,4,39.88-.78,15-5.48,25.93-15.46,30.44-31.09,1.84-6.37,2.33-13.19,2.87-19.85C692.38,248.08,692,242.39,692,236.59Z" transform="translate(-67.47 -70.61)"/><path class="cls-2" d="M252.92,201.34l-28.84-4.09c.25-1.31.4-2.46.67-3.57,2.68-11.1,6.68-21.59,14.28-30.35,8.28-9.53,19.12-14.85,31-18.26,14.2-4.09,28.74-4.92,43.42-4,10.48.64,20.63,2.45,30.38,6.61,17.76,7.56,26.49,21.6,27.26,40.12,1,23.05.47,46.15.82,69.23q.35,22,1.35,44.05A63.36,63.36,0,0,0,380.11,326c.34.71.66,1.42,1.1,2.37-.81.07-1.46.18-2.11.18-8.94,0-17.87-.05-26.81.06-1.74,0-2.61-.59-3.05-2.15-1.87-6.58-3.75-13.16-5.66-19.86-.36.29-1.13.89-1.88,1.51-11.44,9.69-23.79,17.8-38.53,21.54-17.13,4.35-34.27,4.69-51.12-1.12-19.78-6.82-32.14-24.11-33.17-45-1.24-25.45,12.83-47.07,40.74-55.34,9.17-2.72,18.82-4,28.33-5.34,17.27-2.5,34.57-4.72,51.3-10,1.85-.58,2.81-1.36,2.67-3.42-.4-5.82-.26-11.71-1.07-17.47-1.66-11.77-9.18-18.82-20-22.34a71.84,71.84,0,0,0-44.06-.06c-10.18,3.12-16,10.81-19.86,20.27C255.43,193.54,254.31,197.33,252.92,201.34Zm89.35,35.22a12.73,12.73,0,0,0-1.55.25c-14.14,5.48-29,8.16-43.83,10.7-8.62,1.48-17.29,3-25.71,5.26-12.51,3.42-20.09,13.49-20.53,25.16a27.9,27.9,0,0,0,19.56,28.2c9.47,3.07,19.19,3,28.82,1.11,15.53-3.07,28-10.82,36.12-24.79a41.78,41.78,0,0,0,5.51-17.74C341.42,255.45,341.74,246.16,342.27,236.56Z" transform="translate(-67.47 -70.61)"/><path class="cls-2" d="M911.88,244.6H780.12c.23,2.77.36,5.32.66,7.86,1.33,11.25,4.26,22,10.42,31.66,13.81,21.64,41.86,29.52,64.31,18,9.57-4.89,15.8-12.91,20.39-22.37,1.58-3.26,2.91-6.64,4.47-10.24L911,273.48c-.44,1.65-.75,3-1.16,4.32-5.55,18.13-15.4,33.15-31.65,43.47C868,327.71,856.8,331,845,332.19c-14.05,1.44-28,.68-41.45-3.88-25.44-8.62-41.24-26.62-49.1-51.89-5.24-16.84-6-34.17-4.64-51.61,1.12-14.68,4.14-29,11.17-42.05,12.47-23.23,31.51-37.44,57.89-41.11,16.46-2.29,32.54-.84,47.63,6.56,20.37,10,33.18,26.51,40,47.87a118.85,118.85,0,0,1,5.39,33.8C912,234.67,911.88,239.47,911.88,244.6Zm-130-25.7h98.9c-.92-5.19-1.59-10.19-2.7-15.09-5.76-25.57-28-41.16-54.48-36.93C799.71,170.7,782.87,191.93,781.9,218.9Z" transform="translate(-67.47 -70.61)"/><path class="cls-2" d="M68.3,75H98.07V218.88l.6.18c3.09-3.24,6.2-6.46,9.27-9.71q29.69-31.33,59.34-62.68a5.14,5.14,0,0,1,4.09-1.83c11.15.09,22.3,0,33.45,0h2.89L140.23,213l74.22,115.38c-1.16.06-1.91.14-2.66.14-10.6,0-21.19,0-31.79.05a3.64,3.64,0,0,1-3.58-2Q149,282.29,121.4,238c-.66-1.05-1.33-2.1-2.45-3.86a40,40,0,0,1-2.72,3.47c-5.34,5.4-10.68,10.8-16.12,16.09a6.32,6.32,0,0,0-2.1,5c.08,22.15,0,44.29,0,66.43v3.26H68.3Z" transform="translate(-67.47 -70.61)"/><path class="cls-2" d="M1246.54,328.57h-20.19c-4.74,0-9.49-.09-14.23,0a3.72,3.72,0,0,1-3.75-2.07q-27.7-44.73-55.51-89.39c-.46-.74-.95-1.45-1.55-2.37-.6.51-1.14.91-1.61,1.38-6,6-12.12,12-18.07,18.16a5.82,5.82,0,0,0-1.5,3.67c-.09,22.38-.07,44.76-.07,67.13v3.26h-29.63V75.08H1130V219.49c.89-.81,1.36-1.18,1.76-1.61q33.78-35.61,67.52-71.24a5.1,5.1,0,0,1,4.1-1.8c11.07.09,22.14,0,33.22,0,.75,0,1.51.08,2.92.16l-67.34,68Z" transform="translate(-67.47 -70.61)"/><path class="cls-2" d="M926.84,273.9,956.57,269c.65,2.85,1.15,5.62,1.92,8.31C963.41,294.63,976,305,994,306.79c10.17,1,20.29.84,29.91-2.91,10.5-4.1,17.43-11.49,19.17-23,1.3-8.62-2.67-17.23-10.71-20.55a251.46,251.46,0,0,0-26.86-9.05c-14.34-4.11-28.82-7.73-42.67-13.36-19.39-7.89-30.13-22.22-30.44-43.22-.31-21.72,10-37.47,29.62-46.69,13.82-6.49,28.59-8.06,43.73-7a100.33,100.33,0,0,1,27.71,5.77c17.38,6.39,27.93,18.66,32,36.61.65,2.84,1.21,5.69,1.87,8.79l-29.08,4.13-.81-3.48c-3.39-14.88-14-24.3-29.42-26.07a74.25,74.25,0,0,0-28.43,1.84,26.44,26.44,0,0,0-14.06,9.14c-7,8.76-5.84,20.41,3.2,27a44.27,44.27,0,0,0,12.68,6.12c17.39,5.44,35,10.32,52.33,15.82a96.23,96.23,0,0,1,19.1,8.15c12.67,7.37,19.22,18.87,20.79,33.45,2.71,25.1-11.51,50.65-42,60.21-12,3.76-24.26,4.78-36.76,4-9.43-.57-18.69-1.93-27.6-5.14-17.72-6.38-29.11-19-35.44-36.42C929.83,285.53,928.55,279.84,926.84,273.9Z" transform="translate(-67.47 -70.61)"/><path class="cls-2" d="M973.82,392.78c-7.88-8.2-15.54-16.16-23.41-24.36l23.41-24.36,23.43,24.36Z" transform="translate(-67.47 -70.61)"/><path class="cls-2" d="M1007.9,368.43l23.41-24.37c7.82,8.12,15.52,16.13,23.42,24.35-7.75,8.07-15.43,16.08-23.4,24.37Z" transform="translate(-67.47 -70.61)"/><line class="cls-1" x1="1018.11" y1="294.49" x2="1186.06" y2="294.56"/></svg>