<svg id="Ebene_1" data-name="Ebene 1" xmlns="http://www.w3.org/2000/svg" viewBox="0 0 741.01 1105.47"><defs><style>.cls-1{fill:#cb8e59;}.cls-2{isolation:isolate;}.cls-3{fill:#31492a;}.cls-4{fill:#931914;}</style></defs><path class="cls-1" d="M594.55,1104.62c2.21,6.46,1.48,11.33,0,16.24Z" transform="translate(-38.36 -29.04)"/><path class="cls-1" d="M598.61,1134.45l-2-3.7,1.33-.58c.18,1.45.37,2.9.56,4.34Z" transform="translate(-38.36 -29.04)"/><polygon class="cls-1" points="546.53 1069.46 546.26 1068.57 547.02 1068.69 546.53 1069.46"/><g class="cls-2"><g class="cls-2"><path class="cls-3" d="M38.36,193.08V31.79h19v92l45-47.53H127L84.09,119.59l47.22,73.49H107.86L70.79,133.34,57.37,146.76v46.32Z" transform="translate(-38.36 -29.04)"/><path class="cls-3" d="M213.11,178.67q-10.56,9.35-20.33,13.2a56.78,56.78,0,0,1-21,3.85q-18.49,0-28.41-9.41t-9.93-24a33.07,33.07,0,0,1,3.75-15.68,31.88,31.88,0,0,1,9.82-11.38,45.21,45.21,0,0,1,13.68-6.49,129.54,129.54,0,0,1,16.9-3q23-2.86,33.9-6.83c.07-2.71.1-4.43.1-5.17q0-12.09-5.38-17Q199,90,184.6,90q-13.42,0-19.81,4.9t-9.45,17.32l-18.59-2.64q2.53-12.42,8.35-20.08t16.79-11.77q11-4.12,25.45-4.12t23.34,3.52q9,3.52,13.21,8.85a31.88,31.88,0,0,1,5.91,13.48q1,5.07.95,18.26v26.41q0,27.62,1.22,34.93a45.08,45.08,0,0,0,4.8,14H216.92A43.31,43.31,0,0,1,213.11,178.67Zm-1.58-44.23q-10.35,4.4-31.05,7.48-11.73,1.76-16.58,4a16.69,16.69,0,0,0-7.5,6.44,17.41,17.41,0,0,0-2.64,9.4,17.15,17.15,0,0,0,5.75,13.2q5.76,5.29,16.85,5.29a38,38,0,0,0,19.54-5,30.36,30.36,0,0,0,12.57-13.7q3.06-6.7,3.06-19.8Z" transform="translate(-38.36 -29.04)"/></g><g class="cls-2"><path class="cls-3" d="M258.27,193.08V91.64H241.48V76.24h16.79V63.81q0-11.78,2-17.5a25.3,25.3,0,0,1,9.67-12.49Q276.86,29,289.32,29a89.4,89.4,0,0,1,17.74,2l-2.85,17.27A61.55,61.55,0,0,0,293,47.19q-8.67,0-12.25,3.85t-3.6,14.42V76.24H299v15.4H277.17V193.08Z" transform="translate(-38.36 -29.04)"/></g><g class="cls-2"><path class="cls-3" d="M308,193.08V91.64h-16.8V76.24H308V63.81q0-11.78,2-17.5a25.24,25.24,0,0,1,9.67-12.49Q326.56,29,339,29a89.48,89.48,0,0,1,17.74,2l-2.85,17.27a61.55,61.55,0,0,0-11.19-1.1q-8.67,0-12.26,3.85t-3.59,14.42V76.24h21.87v15.4H326.87V193.08Z" transform="translate(-38.36 -29.04)"/><path class="cls-3" d="M430.23,178.67q-10.56,9.35-20.33,13.2a56.87,56.87,0,0,1-21,3.85q-18.48,0-28.41-9.41t-9.93-24a33.07,33.07,0,0,1,3.75-15.68,31.88,31.88,0,0,1,9.82-11.38,45.21,45.21,0,0,1,13.68-6.49,129.54,129.54,0,0,1,16.9-3q23-2.86,33.9-6.83c.07-2.71.11-4.43.11-5.17q0-12.09-5.39-17Q416.07,90,401.71,90q-13.41,0-19.8,4.9t-9.46,17.32l-18.59-2.64q2.55-12.42,8.35-20.08T379,77.72q11-4.12,25.46-4.12t23.34,3.52q9,3.52,13.2,8.85a31.64,31.64,0,0,1,5.91,13.48q1,5.07,1,18.26v26.41q0,27.62,1.21,34.93a45.1,45.1,0,0,0,4.81,14H434A43.31,43.31,0,0,1,430.23,178.67Zm-1.59-44.23q-10.35,4.4-31.05,7.48-11.73,1.76-16.58,4a16.69,16.69,0,0,0-7.5,6.44,17.41,17.41,0,0,0-2.64,9.4,17.16,17.16,0,0,0,5.76,13.2q5.75,5.29,16.84,5.29a37.94,37.94,0,0,0,19.54-5,30.36,30.36,0,0,0,12.57-13.7q3.06-6.7,3.06-19.8Z" transform="translate(-38.36 -29.04)"/><path class="cls-3" d="M547.63,155.45,567.27,158q-4.65,17.94-17.21,27.84T518,195.72q-24.62,0-39-15.79t-14.41-44.28q0-29.49,14.57-45.77T516.89,73.6q22.5,0,36.76,16t14.26,44.89c0,1.17,0,2.93-.11,5.28H484.15q1.07,19.25,10.46,29.48a30.53,30.53,0,0,0,23.45,10.24,28.22,28.22,0,0,0,17.84-5.73Q543.3,168,547.63,155.45Zm-62.42-32h62.63q-1.27-14.75-7.18-22.12a28.69,28.69,0,0,0-23.55-11.44,29.57,29.57,0,0,0-22,9.13Q486.16,108.14,485.21,123.44Z" transform="translate(-38.36 -29.04)"/><path class="cls-3" d="M577.05,158.2l18.8-3.08q1.59,11.77,8.82,18t20.23,6.28q13.1,0,19.43-5.56t6.34-13a12.16,12.16,0,0,0-5.6-10.56q-3.92-2.64-19.44-6.71-20.91-5.5-29-9.52a28.45,28.45,0,0,1-12.25-11.11,30.38,30.38,0,0,1-4.17-15.68,31,31,0,0,1,3.43-14.46A31.6,31.6,0,0,1,593,81.74,38.7,38.7,0,0,1,605.09,76a55.63,55.63,0,0,1,16.43-2.36,62.6,62.6,0,0,1,23.18,4q10,4,14.73,10.72t6.55,18.1L647.39,109q-1.26-9-7.34-14.08t-17.16-5.06q-13.1,0-18.7,4.51T598.6,105a11.2,11.2,0,0,0,2.32,6.93,16.75,16.75,0,0,0,7.29,5.28q2.85,1.11,16.79,5.07,20.18,5.61,28.15,9.18a28.81,28.81,0,0,1,12.51,10.4q4.55,6.83,4.55,16.94a34.21,34.21,0,0,1-5.55,18.65,36.21,36.21,0,0,1-16,13.53A56.25,56.25,0,0,1,625,195.72q-21.86,0-33.32-9.46T577.05,158.2Z" transform="translate(-38.36 -29.04)"/><path class="cls-3" d="M686.43,193.08V31.79h19v92l45-47.53H775l-42.88,43.35,47.21,73.49H755.92l-37.07-59.74-13.41,13.42v46.32Z" transform="translate(-38.36 -29.04)"/></g></g><polygon class="cls-3" points="589.25 189.31 574.33 204.83 559.42 189.31 574.33 173.8 589.25 189.31"/><polygon class="cls-3" points="625.79 189.31 610.88 204.83 595.96 189.31 610.88 173.8 625.79 189.31"/><g class="cls-2"><path class="cls-4" d="M216.39,286v-43h29v5.07H222.07v13.3h20.16v5.07H222.07V286Z" transform="translate(-38.36 -29.04)"/><path class="cls-4" d="M272.37,282.2a19.72,19.72,0,0,1-5.64,3.52,16.32,16.32,0,0,1-5.81,1q-5.13,0-7.88-2.5a8.27,8.27,0,0,1-2.76-6.4,8.55,8.55,0,0,1,1-4.18,8.69,8.69,0,0,1,2.73-3,12.86,12.86,0,0,1,3.79-1.73,37.85,37.85,0,0,1,4.69-.79,48,48,0,0,0,9.41-1.82c0-.72,0-1.18,0-1.37,0-2.15-.49-3.67-1.49-4.55q-2-1.78-6-1.78-3.72,0-5.49,1.3a8,8,0,0,0-2.62,4.61l-5.16-.7a12.63,12.63,0,0,1,2.32-5.34,10.05,10.05,0,0,1,4.66-3.14,20.81,20.81,0,0,1,7.06-1.1,18.56,18.56,0,0,1,6.47.94,8.45,8.45,0,0,1,3.66,2.36,8.22,8.22,0,0,1,1.64,3.59,28.92,28.92,0,0,1,.27,4.86v7a76.19,76.19,0,0,0,.33,9.3,11.74,11.74,0,0,0,1.34,3.74h-5.51A11.21,11.21,0,0,1,272.37,282.2Zm-.43-11.78a39,39,0,0,1-8.62,2,19.88,19.88,0,0,0-4.6,1.05,4.59,4.59,0,0,0-2.08,1.71,4.52,4.52,0,0,0-.73,2.51,4.46,4.46,0,0,0,1.6,3.51,6.84,6.84,0,0,0,4.67,1.41,10.86,10.86,0,0,0,5.42-1.33,8.3,8.3,0,0,0,3.49-3.65,12.84,12.84,0,0,0,.85-5.27Z" transform="translate(-38.36 -29.04)"/><path class="cls-4" d="M297,281.32l.77,4.66a19.86,19.86,0,0,1-4,.47,9,9,0,0,1-4.45-.91,5.08,5.08,0,0,1-2.23-2.39c-.43-1-.64-3.06-.64-6.22V259h-3.87v-4.11h3.87v-7.7l5.24-3.16v10.86H297V259h-5.3v18.19a9.05,9.05,0,0,0,.28,2.9,2.26,2.26,0,0,0,.91,1,3.55,3.55,0,0,0,1.8.38A16.57,16.57,0,0,0,297,281.32Z" transform="translate(-38.36 -29.04)"/><path class="cls-4" d="M322.41,282.2a19.72,19.72,0,0,1-5.64,3.52,16.32,16.32,0,0,1-5.81,1q-5.13,0-7.88-2.5a8.27,8.27,0,0,1-2.76-6.4,8.65,8.65,0,0,1,3.77-7.21,12.86,12.86,0,0,1,3.79-1.73,37.85,37.85,0,0,1,4.69-.79,47.67,47.67,0,0,0,9.4-1.82c0-.72,0-1.18,0-1.37,0-2.15-.49-3.67-1.49-4.55q-2-1.78-6-1.78-3.72,0-5.49,1.3a8,8,0,0,0-2.62,4.61l-5.16-.7a12.63,12.63,0,0,1,2.32-5.34,10.07,10.07,0,0,1,4.65-3.14,20.91,20.91,0,0,1,7.07-1.1,18.56,18.56,0,0,1,6.47.94,8.45,8.45,0,0,1,3.66,2.36,8.22,8.22,0,0,1,1.64,3.59,28.92,28.92,0,0,1,.27,4.86v7a76.19,76.19,0,0,0,.33,9.3A11.74,11.74,0,0,0,329,286h-5.51A11.21,11.21,0,0,1,322.41,282.2ZM322,270.42a38.74,38.74,0,0,1-8.61,2,19.88,19.88,0,0,0-4.6,1.05,4.59,4.59,0,0,0-2.08,1.71,4.52,4.52,0,0,0-.73,2.51,4.46,4.46,0,0,0,1.6,3.51,6.84,6.84,0,0,0,4.67,1.41,10.86,10.86,0,0,0,5.42-1.33,8.22,8.22,0,0,0,3.48-3.65,12.67,12.67,0,0,0,.85-5.27Z" transform="translate(-38.36 -29.04)"/><path class="cls-4" d="M352.65,286v-43h8.55l10.17,30.41q1.41,4.25,2.05,6.36c.49-1.57,1.25-3.86,2.28-6.89L386,243.09h7.64v43h-5.47v-36l-12.48,36h-5.13l-12.42-36.56V286Z" transform="translate(-38.36 -29.04)"/><path class="cls-4" d="M400.17,270.48q0-8.64,4.8-12.8a14.47,14.47,0,0,1,9.79-3.46,14,14,0,0,1,10.49,4.21q4.06,4.2,4.07,11.61,0,6-1.8,9.45a12.77,12.77,0,0,1-5.25,5.35,15.24,15.24,0,0,1-7.51,1.9,14,14,0,0,1-10.56-4.19Q400.17,278.37,400.17,270.48Zm5.42,0q0,6,2.6,8.95a8.68,8.68,0,0,0,13.1,0c1.74-2,2.61-5,2.61-9.11,0-3.85-.88-6.77-2.62-8.75a8.71,8.71,0,0,0-13.09,0Q405.6,264.51,405.59,270.48Z" transform="translate(-38.36 -29.04)"/><path class="cls-4" d="M435.44,286V254.92h4.75v4.72a12.83,12.83,0,0,1,3.35-4.36,5.82,5.82,0,0,1,3.39-1.06,10.34,10.34,0,0,1,5.42,1.7l-1.82,4.89a7.57,7.57,0,0,0-3.87-1.14,5,5,0,0,0-3.1,1,5.63,5.63,0,0,0-2,2.89,20.68,20.68,0,0,0-.88,6.15V286Z" transform="translate(-38.36 -29.04)"/><path class="cls-4" d="M454.51,288.62l5.13.76a4.92,4.92,0,0,0,1.79,3.46,8.81,8.81,0,0,0,5.36,1.46,9.46,9.46,0,0,0,5.65-1.46,7.24,7.24,0,0,0,2.7-4.11,33.87,33.87,0,0,0,.38-6.76,10.87,10.87,0,0,1-8.61,4.07,11.75,11.75,0,0,1-9.94-4.63,17.86,17.86,0,0,1-3.51-11.1,20.75,20.75,0,0,1,1.61-8.22,12.89,12.89,0,0,1,4.67-5.82,12.68,12.68,0,0,1,7.2-2,11.18,11.18,0,0,1,9.08,4.45v-3.75h4.86v26.9c0,4.84-.49,8.28-1.48,10.3a10.84,10.84,0,0,1-4.69,4.79,16.26,16.26,0,0,1-7.89,1.76,14.92,14.92,0,0,1-9-2.51Q454.4,293.65,454.51,288.62Zm4.37-18.7q0,6.13,2.43,8.94a7.7,7.7,0,0,0,6.09,2.81,7.8,7.8,0,0,0,6.1-2.79c1.64-1.87,2.46-4.79,2.46-8.78q0-5.72-2.54-8.61a7.8,7.8,0,0,0-6.1-2.9,7.62,7.62,0,0,0-6,2.85C459.7,263.35,458.88,266.17,458.88,269.92Z" transform="translate(-38.36 -29.04)"/><path class="cls-4" d="M509.15,282.2a19.72,19.72,0,0,1-5.64,3.52,16.32,16.32,0,0,1-5.81,1q-5.13,0-7.88-2.5a8.27,8.27,0,0,1-2.76-6.4,8.65,8.65,0,0,1,3.77-7.21,12.74,12.74,0,0,1,3.79-1.73,37.85,37.85,0,0,1,4.69-.79,47.67,47.67,0,0,0,9.4-1.82c0-.72,0-1.18,0-1.37q0-3.23-1.49-4.55-2-1.78-6-1.78-3.72,0-5.49,1.3a8,8,0,0,0-2.62,4.61l-5.16-.7a12.75,12.75,0,0,1,2.31-5.34,10.16,10.16,0,0,1,4.66-3.14,20.85,20.85,0,0,1,7.06-1.1,18.58,18.58,0,0,1,6.48.94,8.45,8.45,0,0,1,3.66,2.36,8.22,8.22,0,0,1,1.64,3.59A29.24,29.24,0,0,1,514,266v7a75.36,75.36,0,0,0,.34,9.3,12,12,0,0,0,1.33,3.74h-5.5A11.21,11.21,0,0,1,509.15,282.2Zm-.44-11.78a38.74,38.74,0,0,1-8.61,2,19.88,19.88,0,0,0-4.6,1.05,4.59,4.59,0,0,0-2.08,1.71,4.67,4.67,0,0,0,.86,6,6.89,6.89,0,0,0,4.68,1.41,10.88,10.88,0,0,0,5.42-1.33,8.22,8.22,0,0,0,3.48-3.65,12.67,12.67,0,0,0,.85-5.27Z" transform="translate(-38.36 -29.04)"/><path class="cls-4" d="M522.22,286V254.92H527v4.43a11.2,11.2,0,0,1,9.91-5.13,13.06,13.06,0,0,1,5.17,1,8.21,8.21,0,0,1,3.53,2.65,10.24,10.24,0,0,1,1.64,3.9,31,31,0,0,1,.29,5.13V286h-5.27V267.11a14.21,14.21,0,0,0-.62-4.82,5.08,5.08,0,0,0-2.18-2.55,7,7,0,0,0-3.68-.95,8.52,8.52,0,0,0-5.81,2.14c-1.63,1.43-2.45,4.13-2.45,8.12v17Z" transform="translate(-38.36 -29.04)"/><path class="cls-4" d="M575.89,282.2a19.72,19.72,0,0,1-5.64,3.52,16.36,16.36,0,0,1-5.81,1q-5.13,0-7.89-2.5a8.29,8.29,0,0,1-2.75-6.4,8.68,8.68,0,0,1,3.76-7.21,12.92,12.92,0,0,1,3.8-1.73,37.51,37.51,0,0,1,4.69-.79,47.83,47.83,0,0,0,9.4-1.82c0-.72,0-1.18,0-1.37q0-3.23-1.49-4.55-2-1.78-6-1.78-3.72,0-5.49,1.3a8,8,0,0,0-2.63,4.61l-5.15-.7a12.75,12.75,0,0,1,2.31-5.34,10.16,10.16,0,0,1,4.66-3.14,20.85,20.85,0,0,1,7.06-1.1,18.58,18.58,0,0,1,6.48.94,8.45,8.45,0,0,1,3.66,2.36,8.22,8.22,0,0,1,1.64,3.59,30.42,30.42,0,0,1,.26,4.86v7a75.36,75.36,0,0,0,.34,9.3,11.72,11.72,0,0,0,1.33,3.74h-5.51A11.44,11.44,0,0,1,575.89,282.2Zm-.44-11.78a38.74,38.74,0,0,1-8.61,2,19.88,19.88,0,0,0-4.6,1.05,4.59,4.59,0,0,0-2.08,1.71,4.67,4.67,0,0,0,.86,6,6.86,6.86,0,0,0,4.67,1.41,10.83,10.83,0,0,0,5.42-1.33,8.19,8.19,0,0,0,3.49-3.65,12.67,12.67,0,0,0,.85-5.27Z" transform="translate(-38.36 -29.04)"/></g></svg>