{
    "asset" : {
        "generator" : "Khronos glTF Blender I/O v1.8.19",
        "version" : "2.0"
    },
    "scene" : 0,
    "scenes" : [
        {
            "name" : "Scene",
            "nodes" : [
                2
            ]
        }
    ],
    "nodes" : [
        {
            "mesh" : 0,
            "name" : "Object_2"
        },
        {
            "children" : [
                0
            ],
            "name" : "big-football-goal.obj.cleaner.materialmerger.gles"
        },
        {
            "children" : [
                1
            ],
            "name" : "Sketchfab_model",
            "rotation" : [
                -0.7071068286895752,
                0,
                0,
                0.7071068286895752
            ]
        }
    ],
    "materials" : [
        {
            "doubleSided" : true,
            "name" : "base",
            "pbrMetallicRoughness" : {
                "baseColorFactor" : [
                    0.6399999856948853,
                    0.6399999856948853,
                    0.6399999856948853,
                    1
                ],
                "metallicFactor" : 0,
                "roughnessFactor" : 0.9722306132316589
            }
        },
        {
            "alphaMode" : "BLEND",
            "doubleSided" : true,
            "name" : "material",
            "pbrMetallicRoughness" : {
                "baseColorTexture" : {
                    "index" : 0
                },
                "metallicFactor" : 0,
                "roughnessFactor" : 0.9487071633338928
            }
        },
        {
            "doubleSided" : true,
            "emissiveFactor" : [
                0.20000000298023224,
                0.20000000298023224,
                0.20000000298023224
            ],
            "emissiveTexture" : {
                "index" : 1
            },
            "name" : "field",
            "pbrMetallicRoughness" : {
                "baseColorTexture" : {
                    "index" : 2
                },
                "metallicFactor" : 0
            }
        },
        {
            "doubleSided" : true,
            "emissiveFactor" : [
                1,
                1,
                1
            ],
            "emissiveTexture" : {
                "index" : 3
            },
            "name" : "werbung",
            "pbrMetallicRoughness" : {}
        },
        {
            "doubleSided" : true,
            "name" : "meute",
            "pbrMetallicRoughness" : {
                "baseColorTexture" : {
                    "index" : 4
                },
                "metallicFactor" : 0
            }
        }
    ],
    "meshes" : [
        {
            "name" : "Object_0",
            "primitives" : [
                {
                    "attributes" : {
                        "POSITION" : 0,
                        "NORMAL" : 1,
                        "TEXCOORD_0" : 2
                    },
                    "indices" : 3,
                    "material" : 0
                },
                {
                    "attributes" : {
                        "POSITION" : 4,
                        "NORMAL" : 5,
                        "TEXCOORD_0" : 6
                    },
                    "indices" : 7,
                    "material" : 1
                },
                {
                    "attributes" : {
                        "POSITION" : 8,
                        "NORMAL" : 9,
                        "TEXCOORD_0" : 10
                    },
                    "indices" : 11,
                    "material" : 2
                },
                {
                    "attributes" : {
                        "POSITION" : 12,
                        "NORMAL" : 13,
                        "TEXCOORD_0" : 14
                    },
                    "indices" : 15,
                    "material" : 3
                },
                {
                    "attributes" : {
                        "POSITION" : 16,
                        "NORMAL" : 17,
                        "TEXCOORD_0" : 18
                    },
                    "indices" : 19,
                    "material" : 4
                }
            ]
        }
    ],
    "textures" : [
        {
            "sampler" : 0,
            "source" : 0
        },
        {
            "sampler" : 0,
            "source" : 1
        },
        {
            "sampler" : 0,
            "source" : 1
        },
        {
            "sampler" : 0,
            "source" : 2
        },
        {
            "sampler" : 0,
            "source" : 3
        }
    ],
    "images" : [
        {
            "bufferView" : 8,
            "mimeType" : "image/png",
            "name" : "material_baseColor"
        },
        {
            "bufferView" : 13,
            "mimeType" : "image/jpeg",
            "name" : "canvas-prints-soccer-field-with-real-measures-and-texture-grass"
        },
        {
            "bufferView" : 18,
            "mimeType" : "image/jpeg",
            "name" : "tee-vorne Small"
        },
        {
            "bufferView" : 23,
            "mimeType" : "image/jpeg",
            "name" : "meute Small"
        }
    ],
    "accessors" : [
        {
            "bufferView" : 0,
            "componentType" : 5126,
            "count" : 256,
            "max" : [
                39.349822998046875,
                2.0434794425964355,
                2.9287571907043457
            ],
            "min" : [
                36.90301513671875,
                -4.0575714111328125,
                0.07753190398216248
            ],
            "type" : "VEC3"
        },
        {
            "bufferView" : 1,
            "componentType" : 5126,
            "count" : 256,
            "type" : "VEC3"
        },
        {
            "bufferView" : 2,
            "componentType" : 5126,
            "count" : 256,
            "type" : "VEC2"
        },
        {
            "bufferView" : 3,
            "componentType" : 5123,
            "count" : 1236,
            "type" : "SCALAR"
        },
        {
            "bufferView" : 4,
            "componentType" : 5126,
            "count" : 1453,
            "max" : [
                39.292884826660156,
                2.0082855224609375,
                2.86505126953125
            ],
            "min" : [
                36.94805908203125,
                -4.022378444671631,
                0.16402789950370789
            ],
            "type" : "VEC3"
        },
        {
            "bufferView" : 5,
            "componentType" : 5126,
            "count" : 1453,
            "type" : "VEC3"
        },
        {
            "bufferView" : 6,
            "componentType" : 5126,
            "count" : 1453,
            "type" : "VEC2"
        },
        {
            "bufferView" : 7,
            "componentType" : 5123,
            "count" : 1968,
            "type" : "SCALAR"
        },
        {
            "bufferView" : 9,
            "componentType" : 5126,
            "count" : 4,
            "max" : [
                41.21348571777344,
                13.234442710876465,
                0.08643722534179688
            ],
            "min" : [
                -6.778064250946045,
                -16.40873146057129,
                0.08643324673175812
            ],
            "type" : "VEC3"
        },
        {
            "bufferView" : 10,
            "componentType" : 5126,
            "count" : 4,
            "type" : "VEC3"
        },
        {
            "bufferView" : 11,
            "componentType" : 5126,
            "count" : 4,
            "type" : "VEC2"
        },
        {
            "bufferView" : 12,
            "componentType" : 5123,
            "count" : 6,
            "type" : "SCALAR"
        },
        {
            "bufferView" : 14,
            "componentType" : 5126,
            "count" : 8,
            "max" : [
                41.21348571777344,
                13.234442710876465,
                0.8691958785057068
            ],
            "min" : [
                -6.778064250946045,
                -16.40873146057129,
                0.08643324673175812
            ],
            "type" : "VEC3"
        },
        {
            "bufferView" : 15,
            "componentType" : 5126,
            "count" : 8,
            "type" : "VEC3"
        },
        {
            "bufferView" : 16,
            "componentType" : 5126,
            "count" : 8,
            "type" : "VEC2"
        },
        {
            "bufferView" : 17,
            "componentType" : 5123,
            "count" : 18,
            "type" : "SCALAR"
        },
        {
            "bufferView" : 19,
            "componentType" : 5126,
            "count" : 25,
            "max" : [
                215.18287658691406,
                120.69093322753906,
                58.169254302978516
            ],
            "min" : [
                -180.74745178222656,
                -123.86526489257812,
                -52.59494400024414
            ],
            "type" : "VEC3"
        },
        {
            "bufferView" : 20,
            "componentType" : 5126,
            "count" : 25,
            "type" : "VEC3"
        },
        {
            "bufferView" : 21,
            "componentType" : 5126,
            "count" : 25,
            "type" : "VEC2"
        },
        {
            "bufferView" : 22,
            "componentType" : 5123,
            "count" : 72,
            "type" : "SCALAR"
        }
    ],
    "bufferViews" : [
        {
            "buffer" : 0,
            "byteLength" : 3072,
            "byteOffset" : 0
        },
        {
            "buffer" : 0,
            "byteLength" : 3072,
            "byteOffset" : 3072
        },
        {
            "buffer" : 0,
            "byteLength" : 2048,
            "byteOffset" : 6144
        },
        {
            "buffer" : 0,
            "byteLength" : 2472,
            "byteOffset" : 8192
        },
        {
            "buffer" : 0,
            "byteLength" : 17436,
            "byteOffset" : 10664
        },
        {
            "buffer" : 0,
            "byteLength" : 17436,
            "byteOffset" : 28100
        },
        {
            "buffer" : 0,
            "byteLength" : 11624,
            "byteOffset" : 45536
        },
        {
            "buffer" : 0,
            "byteLength" : 3936,
            "byteOffset" : 57160
        },
        {
            "buffer" : 0,
            "byteLength" : 39548,
            "byteOffset" : 61096
        },
        {
            "buffer" : 0,
            "byteLength" : 48,
            "byteOffset" : 100644
        },
        {
            "buffer" : 0,
            "byteLength" : 48,
            "byteOffset" : 100692
        },
        {
            "buffer" : 0,
            "byteLength" : 32,
            "byteOffset" : 100740
        },
        {
            "buffer" : 0,
            "byteLength" : 12,
            "byteOffset" : 100772
        },
        {
            "buffer" : 0,
            "byteLength" : 45854,
            "byteOffset" : 100784
        },
        {
            "buffer" : 0,
            "byteLength" : 96,
            "byteOffset" : 146640
        },
        {
            "buffer" : 0,
            "byteLength" : 96,
            "byteOffset" : 146736
        },
        {
            "buffer" : 0,
            "byteLength" : 64,
            "byteOffset" : 146832
        },
        {
            "buffer" : 0,
            "byteLength" : 36,
            "byteOffset" : 146896
        },
        {
            "buffer" : 0,
            "byteLength" : 3391,
            "byteOffset" : 146932
        },
        {
            "buffer" : 0,
            "byteLength" : 300,
            "byteOffset" : 150324
        },
        {
            "buffer" : 0,
            "byteLength" : 300,
            "byteOffset" : 150624
        },
        {
            "buffer" : 0,
            "byteLength" : 200,
            "byteOffset" : 150924
        },
        {
            "buffer" : 0,
            "byteLength" : 144,
            "byteOffset" : 151124
        },
        {
            "buffer" : 0,
            "byteLength" : 9674,
            "byteOffset" : 151268
        }
    ],
    "samplers" : [
        {
            "magFilter" : 9729,
            "minFilter" : 9987
        }
    ],
    "buffers" : [
        {
            "byteLength" : 160944,
            "uri" : "data:application/octet-stream;base64,"
        }
    ]
}
