<?xml version="1.0" encoding="utf-8"?>
<!-- Generator: Adobe Illustrator 26.0.3, SVG Export Plug-In . SVG Version: 6.00 Build 0)  -->
<svg version="1.1" id="Ebene_1" xmlns="http://www.w3.org/2000/svg" xmlns:xlink="http://www.w3.org/1999/xlink" x="0px" y="0px"
	 viewBox="0 0 741 269.7" style="enable-background:new 0 0 741 269.7;" xml:space="preserve">
<style type="text/css">
	.st0{fill:#CB8E59;}
	.st1{fill:#FFFFFF;}
</style>
<path class="st0" d="M556.2,1075.6c2.2,6.5,1.5,11.3,0,16.2V1075.6z"/>
<path class="st0" d="M560.2,1105.4l-2-3.7l1.3-0.6c0.2,1.4,0.4,2.9,0.6,4.3L560.2,1105.4z"/>
<polygon class="st0" points="546.5,1069.5 546.3,1068.6 547,1068.7 "/>
<g>
	<g>
		<path class="st1" d="M0,164V2.8h19v92l45-47.5h24.6L45.7,90.5L92.9,164H69.5l-37.1-59.7L19,117.7V164H0z"/>
		<path class="st1" d="M174.8,149.6c-7,6.2-13.8,10.6-20.3,13.2c-6.7,2.6-13.8,3.9-21,3.9c-12.3,0-21.8-3.1-28.4-9.4
			c-6.6-6.3-9.9-14.3-9.9-24c-0.1-5.5,1.2-10.8,3.8-15.7c2.3-4.5,5.7-8.4,9.8-11.4c4.2-2.9,8.8-5.1,13.7-6.5
			c5.6-1.4,11.2-2.4,16.9-3c15.3-1.9,26.6-4.2,33.9-6.8c0.1-2.7,0.1-4.4,0.1-5.2c0-8.1-1.8-13.7-5.4-17c-4.8-4.5-12-6.8-21.6-6.8
			c-8.9,0-15.6,1.6-19.8,4.9c-4.3,3.3-7.4,9-9.4,17.3l-18.6-2.6c1.7-8.3,4.5-15,8.4-20.1s9.5-9,16.8-11.8c7.3-2.7,15.8-4.1,25.4-4.1
			s17.4,1.2,23.3,3.5c6,2.3,10.4,5.3,13.2,8.8c3,4,5,8.6,5.9,13.5c0.7,3.4,1,9.5,0.9,18.3V115c0,18.4,0.4,30.1,1.2,34.9
			c0.8,4.9,2.4,9.6,4.8,14h-19.9C176.5,159.5,175.2,154.6,174.8,149.6z M173.2,105.4c-6.9,2.9-17.3,5.4-31.1,7.5
			c-7.8,1.2-13.3,2.5-16.6,4c-3.1,1.3-5.7,3.6-7.5,6.4s-2.7,6.1-2.6,9.4c-0.1,5,2,9.9,5.8,13.2c3.8,3.5,9.5,5.3,16.9,5.3
			c6.8,0.1,13.6-1.6,19.5-5c5.5-3.1,9.9-7.9,12.6-13.7c2-4.5,3.1-11.1,3.1-19.8v-7.3H173.2z"/>
	</g>
	<g>
		<path class="st1" d="M219.9,164V62.6h-16.8V47.2h16.8V34.8c0-7.9,0.7-13.7,2-17.5c1.8-5.1,5.2-9.5,9.7-12.5
			C236.2,1.6,242.7,0,251,0c6,0.1,11.9,0.7,17.7,2l-2.9,17.3c-3.7-0.7-7.4-1.1-11.2-1.1c-5.8,0-9.9,1.3-12.2,3.8s-3.6,7.4-3.6,14.4
			v10.8h21.9v15.4h-21.8V164H219.9z"/>
	</g>
	<g>
		<path class="st1" d="M269.6,164V62.6h-16.8V47.2h16.8V34.8c0-7.9,0.7-13.7,2-17.5c1.8-5.1,5.2-9.5,9.7-12.5
			c4.6-3.2,11-4.8,19.3-4.8c6,0.1,11.9,0.7,17.7,2l-2.9,17.3c-3.7-0.7-7.4-1.1-11.2-1.1c-5.8,0-9.9,1.3-12.3,3.8s-3.6,7.4-3.6,14.4
			v10.8h21.9v15.4h-21.8V164H269.6z"/>
		<path class="st1" d="M391.9,149.6c-7,6.2-13.8,10.6-20.3,13.2c-6.7,2.6-13.8,3.9-21,3.9c-12.3,0-21.8-3.1-28.4-9.4
			c-6.6-6.3-9.9-14.3-9.9-24c-0.1-5.5,1.2-10.8,3.8-15.7c2.3-4.5,5.7-8.4,9.8-11.4c4.2-2.9,8.8-5.1,13.7-6.5
			c5.6-1.4,11.2-2.4,16.9-3c15.3-1.9,26.6-4.2,33.9-6.8c0.1-2.7,0.1-4.4,0.1-5.2c0-8.1-1.8-13.7-5.4-17c-4.8-4.5-12-6.8-21.6-6.8
			c-8.9,0-15.5,1.6-19.8,4.9c-4.3,3.3-7.4,9-9.5,17.3l-18.6-2.6c1.7-8.3,4.5-15,8.4-20.1s9.5-9,16.8-11.8c7.3-2.7,15.8-4.1,25.5-4.1
			s17.4,1.2,23.3,3.5c6,2.3,10.4,5.3,13.2,8.8c3,4,5,8.6,5.9,13.5c0.7,3.4,1,9.5,1,18.3V115c0,18.4,0.4,30.1,1.2,34.9
			c0.8,4.9,2.4,9.6,4.8,14h-19.9C393.6,159.5,392.3,154.6,391.9,149.6z M390.3,105.4c-6.9,2.9-17.2,5.4-31,7.5
			c-7.8,1.2-13.3,2.5-16.6,4c-3.1,1.3-5.7,3.6-7.5,6.4s-2.7,6.1-2.6,9.4c-0.1,5,2,9.9,5.8,13.2c3.8,3.5,9.4,5.3,16.8,5.3
			c6.8,0.1,13.6-1.6,19.5-5c5.5-3.1,9.9-7.9,12.6-13.7c2-4.5,3.1-11.1,3.1-19.8L390.3,105.4L390.3,105.4z"/>
		<path class="st1" d="M509.3,126.4l19.6,2.5c-3.1,12-8.8,21.2-17.2,27.8c-8.4,6.6-19.1,9.9-32.1,9.9c-16.4,0-29.4-5.3-39-15.8
			s-14.4-25.3-14.4-44.3c0-19.7,4.9-34.9,14.6-45.8s22.3-16.3,37.7-16.3c15,0,27.3,5.3,36.8,16c9.5,10.7,14.3,25.6,14.3,44.9
			c0,1.2,0,2.9-0.1,5.3h-83.7c0.7,12.8,4.2,22.7,10.5,29.5c5.9,6.7,14.5,10.4,23.5,10.2c6.4,0.2,12.7-1.8,17.8-5.7
			C502.5,140.9,506.4,134.8,509.3,126.4z M446.9,94.4h62.6c-0.8-9.8-3.2-17.2-7.2-22.1c-5.6-7.4-14.3-11.6-23.5-11.4
			c-8.3-0.2-16.3,3.1-22,9.1C450.8,76.1,447.5,84.2,446.9,94.4L446.9,94.4z"/>
		<path class="st1" d="M538.7,129.2l18.8-3.1c1.1,7.8,4,13.8,8.8,18c4.8,4.2,11.6,6.2,20.2,6.3c8.7,0,15.2-1.9,19.4-5.6
			c4.2-3.7,6.3-8,6.3-13c0.1-4.3-2-8.3-5.6-10.6c-2.6-1.8-9.1-4-19.4-6.7c-13.9-3.7-23.6-6.8-29-9.5c-5.1-2.4-9.4-6.3-12.2-11.1
			c-2.8-4.8-4.2-10.2-4.2-15.7c0-5,1.1-10,3.4-14.5c2.2-4.4,5.4-8.1,9.4-11.1c3.7-2.6,7.8-4.5,12.1-5.7c5.3-1.6,10.9-2.4,16.4-2.4
			c7.9-0.1,15.8,1.2,23.2,4c6.7,2.7,11.6,6.2,14.7,10.7s5.3,10.5,6.5,18.1L609,80c-0.8-6-3.3-10.7-7.3-14.1
			c-4.1-3.4-9.8-5.1-17.2-5.1c-8.7,0-15,1.5-18.7,4.5s-5.6,6.6-5.6,10.6c0,2.5,0.8,4.9,2.3,6.9c1.9,2.4,4.4,4.2,7.3,5.3
			c1.9,0.7,7.5,2.4,16.8,5.1c13.5,3.7,22.8,6.8,28.2,9.2c5.1,2.2,9.4,5.8,12.5,10.4c3,4.6,4.5,10.2,4.5,16.9
			c0,6.6-1.9,13.1-5.5,18.6c-3.9,6-9.4,10.7-16,13.5c-7.5,3.3-15.5,4.9-23.7,4.7c-14.6,0-25.7-3.2-33.3-9.5S540.8,141.6,538.7,129.2
			z"/>
		<path class="st1" d="M648.1,164V2.8h19v92l45-47.5h24.6l-42.9,43.3l47.2,73.5h-23.4l-37.1-59.7l-13.4,13.4v46.3L648.1,164z"/>
	</g>
</g>
<polygon class="st1" points="589.2,189.3 574.3,204.8 559.4,189.3 574.3,173.8 "/>
<polygon class="st1" points="625.8,189.3 610.9,204.8 596,189.3 610.9,173.8 "/>
</svg>
